<svg width="15" height="10" viewBox="0 0 15 10" fill="none" xmlns="http://www.w3.org/2000/svg">
  <path d="M3.88 9.168C1.952 9.168 0.988 8.468 0.988 7.068C0.988 6.852 1.012 6.62 1.06 6.372L1.216 5.484H3.376L3.304 5.88C3.272 6.08 3.256 6.284 3.256 6.492C3.256 6.7 3.308 6.872 3.412 7.008C3.572 7.208 3.836 7.308 4.204 7.308C4.572 7.308 4.868 7.208 5.092 7.008C5.324 6.808 5.488 6.44 5.584 5.904L6.568 0.348H8.716L7.708 6.072C7.524 7.136 7.124 7.92 6.508 8.424C5.892 8.92 5.016 9.168 3.88 9.168ZM12.614 0.36C13.526 0.36 14.174 0.56 14.558 0.96C14.846 1.264 14.99 1.648 14.99 2.112C14.99 2.272 14.974 2.44 14.942 2.616L14.834 3.192C14.746 3.648 14.574 4.004 14.318 4.26C14.07 4.516 13.85 4.644 13.658 4.644L13.646 4.74C13.87 4.74 14.098 4.864 14.33 5.112C14.562 5.36 14.678 5.652 14.678 5.988C14.678 6.124 14.662 6.268 14.63 6.42L14.558 6.792C14.43 7.48 14.122 8.02 13.634 8.412C13.154 8.804 12.482 9 11.618 9H7.61003L9.13403 0.36H12.614ZM11.534 5.472H10.394L10.106 7.128H11.246C11.262 7.128 11.278 7.128 11.294 7.128C11.662 7.128 11.954 7.044 12.17 6.876C12.386 6.7 12.494 6.488 12.494 6.24C12.494 5.728 12.174 5.472 11.534 5.472ZM11.858 2.232H10.958L10.646 4.02H11.534C12.302 4.02 12.686 3.684 12.686 3.012C12.686 2.78 12.614 2.592 12.47 2.448C12.334 2.304 12.13 2.232 11.858 2.232Z" fill="#2B2B2B"/>
</svg>
