<svg width="32" height="32" viewBox="0 0 32 32" fill="none" xmlns="http://www.w3.org/2000/svg">
<g clip-path="url(#clip0_14_1084)">
<path d="M0 0H32V32H0" fill="#BD3D44"/>
<path d="M0 3.625H32H0ZM0 8.5625H32H0ZM0 13.5H32H0ZM0 18.4375H32H0ZM0 23.375H32H0ZM0 28.3125H32H0Z" fill="black"/>
<path d="M0 3.625H32M0 8.5625H32M0 13.5H32M0 18.4375H32M0 23.375H32M0 28.3125H32" stroke="white" stroke-width="2.5"/>
<path d="M0 0H24.375V17.1875H0V0Z" fill="#192F5D"/>
<mask id="mask0_14_1084" style="mask-type:alpha" maskUnits="userSpaceOnUse" x="0" y="0" width="25" height="18">
<path d="M0 0H24.375V17.1875H0V0Z" fill="#192F5D"/>
</mask>
<g mask="url(#mask0_14_1084)">
<path fill-rule="evenodd" clip-rule="evenodd" d="M2.38751 4.10765L1.49267 4.73498L1.79478 3.61858L1 2.91109H2.03809L2.38626 2L2.79451 2.91109H3.67945L2.98413 3.61858L3.25332 4.73498L2.38751 4.10765ZM7.31853 4.10766L6.4237 4.735L6.72581 3.6186L5.93103 2.91111H6.96912L7.31728 2.00002L7.72554 2.91111H8.61048L7.91516 3.6186L8.18435 4.735L7.31853 4.10766ZM11.3547 4.735L12.2496 4.10766L13.1154 4.735L12.8462 3.6186L13.5415 2.91111H12.6566L12.2483 2.00002L11.9001 2.91111H10.8621L11.6568 3.6186L11.3547 4.735ZM17.1806 4.10766L16.2858 4.735L16.5879 3.6186L15.7931 2.91111H16.8312L17.1793 2.00002L17.5876 2.91111H18.4725L17.7772 3.6186L18.0464 4.735L17.1806 4.10766ZM1.49267 9.66603L2.38751 9.03869L3.25332 9.66603L2.98413 8.54963L3.67945 7.84213H2.79451L2.38626 6.93104L2.03809 7.84213H1L1.79478 8.54963L1.49267 9.66603ZM7.31853 9.03869L6.4237 9.66603L6.72581 8.54963L5.93103 7.84213H6.96912L7.31728 6.93104L7.72554 7.84213H8.61048L7.91516 8.54963L8.18435 9.66603L7.31853 9.03869ZM11.3547 9.66603L12.2496 9.03869L13.1154 9.66603L12.8462 8.54963L13.5415 7.84213H12.6566L12.2483 6.93104L11.9001 7.84213H10.8621L11.6568 8.54963L11.3547 9.66603ZM17.1806 9.03869L16.2858 9.66603L16.5879 8.54963L15.7931 7.84213H16.8312L17.1793 6.93104L17.5876 7.84213H18.4725L17.7772 8.54963L18.0464 9.66603L17.1806 9.03869ZM1.49267 14.5971L2.38751 13.9697L3.25332 14.5971L2.98413 13.4807L3.67945 12.7732H2.79451L2.38626 11.8621L2.03809 12.7732H1L1.79478 13.4807L1.49267 14.5971ZM7.31853 13.9697L6.4237 14.5971L6.72581 13.4807L5.93103 12.7732H6.96912L7.31728 11.8621L7.72554 12.7732H8.61048L7.91516 13.4807L8.18435 14.5971L7.31853 13.9697ZM11.3547 14.5971L12.2496 13.9697L13.1154 14.5971L12.8462 13.4807L13.5415 12.7732H12.6566L12.2483 11.8621L11.9001 12.7732H10.8621L11.6568 13.4807L11.3547 14.5971ZM17.1806 13.9697L16.2858 14.5971L16.5879 13.4807L15.7931 12.7732H16.8312L17.1793 11.8621L17.5876 12.7732H18.4725L17.7772 13.4807L18.0464 14.5971L17.1806 13.9697ZM21.2168 4.735L22.1116 4.10766L22.9774 4.735L22.7082 3.6186L23.4036 2.91111H22.5186L22.1104 2.00002L21.7622 2.91111H20.7241L21.5189 3.6186L21.2168 4.735ZM22.1116 9.03869L21.2168 9.66603L21.5189 8.54963L20.7241 7.84213H21.7622L22.1104 6.93104L22.5186 7.84213H23.4036L22.7082 8.54963L22.9774 9.66603L22.1116 9.03869ZM21.2168 14.5971L22.1116 13.9697L22.9774 14.5971L22.7082 13.4807L23.4036 12.7732H22.5186L22.1104 11.8621L21.7622 12.7732H20.7241L21.5189 13.4807L21.2168 14.5971ZM4.85302 6.57318L3.95819 7.20051L4.26029 6.08411L3.46551 5.37662H4.5036L4.85177 4.46553L5.26002 5.37662H6.14497L5.44965 6.08411L5.71883 7.20051L4.85302 6.57318ZM8.88922 7.20051L9.78405 6.57318L10.6499 7.20051L10.3807 6.08411L11.076 5.37662H10.1911L9.7828 4.46553L9.43463 5.37662H8.39654L9.19132 6.08411L8.88922 7.20051ZM14.7151 6.57318L13.8202 7.20051L14.1223 6.08411L13.3276 5.37662H14.3657L14.7138 4.46553L15.1221 5.37662H16.007L15.3117 6.08411L15.5809 7.20051L14.7151 6.57318ZM3.95819 12.1315L4.85302 11.5042L5.71883 12.1315L5.44965 11.0151L6.14497 10.3076H5.26002L4.85177 9.39656L4.5036 10.3076H3.46551L4.26029 11.0151L3.95819 12.1315ZM9.78405 11.5042L8.88922 12.1315L9.19132 11.0151L8.39654 10.3076H9.43463L9.7828 9.39656L10.1911 10.3076H11.076L10.3807 11.0151L10.6499 12.1315L9.78405 11.5042ZM13.8202 12.1315L14.7151 11.5042L15.5809 12.1315L15.3117 11.0151L16.007 10.3076H15.1221L14.7138 9.39656L14.3657 10.3076H13.3276L14.1223 11.0151L13.8202 12.1315ZM19.6461 6.57318L18.7513 7.20051L19.0534 6.08411L18.2586 5.37662H19.2967L19.6449 4.46553L20.0531 5.37662H20.938L20.2427 6.08411L20.5119 7.20051L19.6461 6.57318ZM18.7513 12.1315L19.6461 11.5042L20.5119 12.1315L20.2427 11.0151L20.938 10.3076H20.0531L19.6449 9.39656L19.2967 10.3076H18.2586L19.0534 11.0151L18.7513 12.1315Z" fill="#F7FCFF"/>
</g>
</g>
<defs>
<clipPath id="clip0_14_1084">
<rect width="32" height="32" rx="16" fill="white"/>
</clipPath>
</defs>
</svg>
